<svg xmlns="http://www.w3.org/2000/svg" xmlns:xlink="http://www.w3.org/1999/xlink" version="1.1" x="0px" y="0px" viewBox="0 0 100 125" style="enable-background:new 0 0 100 100;" xml:space="preserve"><path d="M65,49h4v4h-4V49z M31,53h4v-4h-4V53z M93,49v28c0,1.1-0.9,2-2,2h-8c-1.1,0-2-0.9-2-2V65h-6v12c0,1.1-0.9,2-2,2h-6v6  c0,1.1-0.9,2-2,2h-8c-1.1,0-2-0.9-2-2v-8c0-1.1,0.9-2,2-2h6v-4H37v4h6c1.1,0,2,0.9,2,2v8c0,1.1-0.9,2-2,2h-8c-1.1,0-2-0.9-2-2v-6h-6  c-1.1,0-2-0.9-2-2V65h-6v12c0,1.1-0.9,2-2,2H9c-1.1,0-2-0.9-2-2V49c0-1.1,0.9-2,2-2h8v-8c0-1.1,0.9-2,2-2h8v-6c0-1.1,0.9-2,2-2h6v-4  h-6c-1.1,0-2-0.9-2-2v-8c0-1.1,0.9-2,2-2h8c1.1,0,2,0.9,2,2v6h6c1.1,0,2,0.9,2,2v6h6v-6c0-1.1,0.9-2,2-2h6v-6c0-1.1,0.9-2,2-2h8  c1.1,0,2,0.9,2,2v8c0,1.1-0.9,2-2,2h-6v4h6c1.1,0,2,0.9,2,2v6h8c1.1,0,2,0.9,2,2v8h8C92.1,47,93,47.9,93,49z M39,47c0-1.1-0.9-2-2-2  h-8c-1.1,0-2,0.9-2,2v8c0,1.1,0.9,2,2,2h8c1.1,0,2-0.9,2-2V47z M73,47c0-1.1-0.9-2-2-2h-8c-1.1,0-2,0.9-2,2v8c0,1.1,0.9,2,2,2h8  c1.1,0,2-0.9,2-2V47z" fill="#4CAF50"/></svg>