<svg xmlns="http://www.w3.org/2000/svg" xmlns:xlink="http://www.w3.org/1999/xlink" version="1.1" width="1000" height="1000" viewBox="0 0 1000 1000" xml:space="preserve">
<desc>Created with Fabric.js 3.5.0</desc>
<defs>
</defs>
<rect x="0" y="0" width="100%" height="100%" fill="#ffffff"></rect>
<g transform="matrix(5.8031 -4.3836 4.3836 5.8031 499.9978 499.9995)" id="196554"  >
<g style="" vector-effect="non-scaling-stroke"   >
		<g transform="matrix(1 0 0 1 -23.7305 -14.9895)"  >
<path style="stroke: none; stroke-width: 1; stroke-dasharray: none; stroke-linecap: butt; stroke-dashoffset: 0; stroke-linejoin: miter; stroke-miterlimit: 4; is-custom-font: none; font-file-url: none; fill: rgb(76,175,80); fill-rule: nonzero; opacity: 1;"  transform=" translate(-26.2695, -47.5105)" d="M 30.484 43.296 h -8.429 v 8.429 h 8.429 V 43.296 z M 27.484 48.724 h -2.429 v -2.428 h 2.429 V 48.724 z" stroke-linecap="round" />
</g>
		<g transform="matrix(1 0 0 1 -7.44 -14.9895)"  >
<path style="stroke: none; stroke-width: 1; stroke-dasharray: none; stroke-linecap: butt; stroke-dashoffset: 0; stroke-linejoin: miter; stroke-miterlimit: 4; is-custom-font: none; font-file-url: none; fill: rgb(76,175,80); fill-rule: nonzero; opacity: 1;"  transform=" translate(-42.56, -47.5105)" d="M 46.779 43.296 h -8.438 v 8.429 h 8.438 V 43.296 z M 43.779 48.724 h -2.438 v -2.428 h 2.438 V 48.724 z" stroke-linecap="round" />
</g>
		<g transform="matrix(1 0 0 1 25.138 -14.9895)"  >
<path style="stroke: none; stroke-width: 1; stroke-dasharray: none; stroke-linecap: butt; stroke-dashoffset: 0; stroke-linejoin: miter; stroke-miterlimit: 4; is-custom-font: none; font-file-url: none; fill: rgb(76,175,80); fill-rule: nonzero; opacity: 1;"  transform=" translate(-75.138, -47.5105)" d="M 79.352 43.296 h -8.428 v 8.429 h 8.428 V 43.296 z M 76.352 48.724 h -2.428 v -2.428 h 2.428 V 48.724 z" stroke-linecap="round" />
</g>
		<g transform="matrix(1 0 0 1 8.85 -14.9895)"  >
<path style="stroke: none; stroke-width: 1; stroke-dasharray: none; stroke-linecap: butt; stroke-dashoffset: 0; stroke-linejoin: miter; stroke-miterlimit: 4; is-custom-font: none; font-file-url: none; fill: rgb(76,175,80); fill-rule: nonzero; opacity: 1;"  transform=" translate(-58.85, -47.5105)" d="M 63.064 43.296 h -8.428 v 8.429 h 8.428 V 43.296 z M 60.064 48.724 h -2.428 v -2.428 h 2.428 V 48.724 z" stroke-linecap="round" />
</g>
		<g transform="matrix(1 0 0 1 0.7075 -12.273)"  >
<path style="stroke: none; stroke-width: 1; stroke-dasharray: none; stroke-linecap: butt; stroke-dashoffset: 0; stroke-linejoin: miter; stroke-miterlimit: 4; is-custom-font: none; font-file-url: none; fill: rgb(76,175,80); fill-rule: nonzero; opacity: 1;"  transform=" translate(-50.7075, -50.227)" d="M 16.625 62.584 h 5.43 v 5.433 h 8.429 v -5.433 h 5.428 v -5.429 h 7.867 v 5.429 h 13.857 v -5.429 h 7.857 v 5.429 h 5.43 v 5.433 h 8.428 v -5.433 h 5.429 v -5.429 h 10.866 v -8.431 h -5.436 v -5.428 H 84.78 v -5.432 H 73.924 v -5.427 H 27.484 v 5.427 H 16.625 v 5.432 h -5.428 v 5.428 H 5.769 v 8.431 h 10.856 V 62.584 z M 8.769 54.155 v -2.431 h 5.428 v -5.429 h 5.428 v -5.432 h 10.859 v -5.427 h 40.439 v 5.427 H 81.78 v 5.432 h 5.431 v 5.429 h 5.436 v 2.431 H 81.78 v 5.429 h -5.429 v 5.433 h -2.428 v -5.433 h -5.43 v -5.429 H 54.637 v 5.429 h -7.857 v -5.429 H 32.913 v 5.429 h -5.428 v 5.433 h -2.429 v -5.433 h -5.43 v -5.429 H 8.769 z" stroke-linecap="round" />
</g>
		
		
</g>
</g>
</svg>