<svg xmlns="http://www.w3.org/2000/svg" xmlns:xlink="http://www.w3.org/1999/xlink" version="1.1" x="0px" y="0px" viewBox="0 0 100 125" enable-background="new 0 0 100 100" xml:space="preserve"><path fill="#4caf50" d="M30.484,43.296h-8.429v8.429h8.429V43.296z M27.484,48.724h-2.429v-2.428h2.429V48.724z"/><path fill="#4caf50" d="M46.779,43.296h-8.438v8.429h8.438V43.296z M43.779,48.724h-2.438v-2.428h2.438V48.724z"/><path fill="#4caf50" d="M79.352,43.296h-8.428v8.429h8.428V43.296z M76.352,48.724h-2.428v-2.428h2.428V48.724z"/><path fill="#4caf50" d="M63.064,43.296h-8.428v8.429h8.428V43.296z M60.064,48.724h-2.428v-2.428h2.428V48.724z"/><path fill="#4caf50" d="M16.625,62.584h5.43v5.433h8.429v-5.433h5.428v-5.429h7.867v5.429h13.857v-5.429h7.857v5.429h5.43v5.433  h8.428v-5.433h5.429v-5.429h10.866v-8.431h-5.436v-5.428H84.78v-5.432H73.924v-5.427H27.484v5.427H16.625v5.432h-5.428v5.428H5.769  v8.431h10.856V62.584z M8.769,54.155v-2.431h5.428v-5.429h5.428v-5.432h10.859v-5.427h40.439v5.427H81.78v5.432h5.431v5.429h5.436  v2.431H81.78v5.429h-5.429v5.433h-2.428v-5.433h-5.43v-5.429H54.637v5.429h-7.857v-5.429H32.913v5.429h-5.428v5.433h-2.429v-5.433  h-5.43v-5.429H8.769z"/></svg>